<svg version="1.1" id="Layer_1" xmlns="http://www.w3.org/2000/svg" xmlns:xlink="http://www.w3.org/1999/xlink" x="0px" y="0px"
	 width="100%" viewBox="0 0 496 496" enable-background="new 0 0 496 496" xml:space="preserve">
<path fill="#000000" opacity="1.000000" stroke="none" 
	d="
M168.818054,256.327759 
	C183.477020,280.657410 170.453964,310.855591 143.014389,316.852631 
	C141.247131,317.238892 139.378967,317.281006 137.557510,317.283051 
	C121.570686,317.301147 105.583809,317.280640 89.596992,317.249146 
	C87.975922,317.245972 86.284691,317.484100 84.829956,316.554230 
	C84.219742,314.320862 85.939484,313.440430 87.035782,312.343323 
	C93.273346,306.100983 99.619804,299.966858 105.819351,293.687500 
	C107.961624,291.517670 110.313988,290.538727 113.370293,290.609650 
	C119.361992,290.748749 125.367531,290.839447 131.352707,290.593658 
	C142.929993,290.118286 150.536041,279.538727 146.534348,269.589905 
	C143.889664,263.014771 138.293411,260.703094 131.788925,260.381073 
	C125.807686,260.084961 119.799667,260.183594 113.807564,260.307404 
	C110.212364,260.381653 108.621773,258.943512 108.723404,255.301682 
	C108.862717,250.309479 108.880157,245.308517 108.756065,240.316132 
	C108.669289,236.825058 110.269760,235.505280 113.597824,235.711090 
	C115.422592,235.823914 117.260262,235.745163 119.091866,235.727386 
	C126.512566,235.655350 131.769379,230.515244 131.817276,223.295990 
	C131.866714,215.844559 127.476257,210.804016 119.702919,211.230087 
	C111.524643,211.678314 105.784302,208.577240 100.665703,202.638290 
	C96.441910,197.737549 91.544868,193.419113 86.984123,188.805099 
	C85.975960,187.785156 84.513657,187.015091 84.594009,184.592621 
	C89.012962,184.067322 93.606422,184.350296 98.069420,184.119110 
	C107.348000,183.638474 116.664742,183.320084 125.983627,184.540436 
	C143.635239,186.852005 157.433640,200.978394 158.090256,218.626816 
	C158.408539,227.182114 155.714661,235.038010 148.184814,241.662003 
	C157.014984,244.489227 163.874390,248.872757 168.818054,256.327759 
M100.983810,193.236282 
	C102.580719,188.919495 98.889534,189.137817 96.635521,188.404938 
	C95.171623,187.928940 93.213310,188.360901 93.096939,190.167694 
	C92.905647,193.137527 95.923332,192.888641 97.684906,193.837830 
	C98.589470,194.325241 99.612000,194.305801 100.983810,193.236282 
z"/>
<path fill="#000000" opacity="1.000000" stroke="none" 
	d="
M102.518150,206.625031 
	C105.345222,208.903152 106.172592,211.539536 106.161148,214.781555 
	C106.076462,238.769470 106.104996,262.757812 106.114609,286.746002 
	C106.115631,289.302490 105.854866,291.673431 103.838158,293.611267 
	C96.392677,300.765594 89.017448,307.993042 81.591835,315.168182 
	C81.022171,315.718658 80.265472,316.075531 78.730293,317.099701 
	C78.730293,272.672058 78.730293,229.024261 78.730293,184.311157 
	C87.725327,191.428894 94.607910,199.316010 102.518150,206.625031 
z"/>
<path fill="#000000" opacity="1.000000" stroke="none" 
	d="
M236.163910,222.153244 
	C237.910339,224.908112 240.752762,226.609009 241.127930,230.130966 
	C241.721176,235.700058 237.315231,240.819580 230.793976,241.206848 
	C224.993576,241.551300 219.157745,241.258011 213.339676,241.363556 
	C210.424805,241.416428 209.649704,239.881500 209.662201,237.312286 
	C209.706696,228.166687 209.715836,219.020447 209.652206,209.875061 
	C209.633438,207.178757 210.729340,205.809433 213.467239,205.878891 
	C218.938980,206.017685 224.411911,205.496033 229.880035,206.499237 
	C239.117249,208.193954 241.661407,214.154007 236.163910,222.153244 
M226.218170,234.916519 
	C229.268921,234.755310 232.739655,234.728790 232.470398,230.454147 
	C232.239380,226.786697 229.060516,226.470520 226.145264,226.360428 
	C224.492920,226.298035 222.835754,226.371033 221.180756,226.369965 
	C219.124832,226.368652 218.336990,227.462051 218.106323,229.437958 
	C217.561432,234.105423 218.535172,234.894501 226.218170,234.916519 
M223.339462,212.366684 
	C220.893555,212.424240 218.070312,211.827316 218.077209,215.767624 
	C218.081161,218.029480 218.583023,219.945496 221.293488,219.687286 
	C224.499374,219.381882 228.605316,221.457932 230.411041,216.911850 
	C231.023926,215.368866 230.045746,213.905960 228.488739,213.323929 
	C227.121033,212.812653 225.612671,212.677612 223.339462,212.366684 
z"/>
<path fill="#000000" opacity="1.000000" stroke="none" 
	d="
M316.253662,213.026215 
	C318.265472,216.456970 318.993835,219.894531 319.122131,223.394180 
	C319.524261,234.366974 311.831909,242.250839 300.960022,242.191940 
	C290.058258,242.132874 282.722015,234.180878 283.278046,223.025925 
	C283.719086,214.177826 287.358887,208.865051 294.546051,206.578766 
	C302.908569,203.918564 310.888824,206.184631 316.253662,213.026215 
M305.719757,213.606125 
	C301.931183,211.551620 298.168060,211.713440 295.091888,214.679337 
	C291.601135,218.044968 290.695557,222.347397 292.009613,227.089844 
	C293.596313,232.816208 296.634430,235.265579 301.897034,234.934784 
	C306.666870,234.634949 309.802032,231.602463 310.497192,226.136932 
	C311.086060,221.507065 310.488251,217.114029 305.719757,213.606125 
z"/>
<path fill="#000000" opacity="1.000000" stroke="none" 
	d="
M263.788147,205.689835 
	C272.040588,206.370377 277.257233,210.247864 279.326752,217.961334 
	C281.391052,225.655396 280.092621,232.782303 273.995056,237.992798 
	C267.889709,243.209946 260.533112,243.401123 253.339828,240.166534 
	C246.102478,236.912094 242.858612,228.022263 244.870514,218.126221 
	C246.288010,211.153854 252.254288,206.194885 259.849457,205.709656 
	C261.009491,205.635529 262.177612,205.687378 263.788147,205.689835 
M271.101746,219.565704 
	C268.844910,213.863174 264.648407,211.294281 259.724976,212.601349 
	C255.142502,213.817917 251.897125,219.302155 252.473816,224.854919 
	C253.171127,231.569153 256.661438,235.136124 262.383179,234.981918 
	C268.062042,234.828873 271.421936,230.969757 271.627106,224.264862 
	C271.667297,222.952530 271.450134,221.632309 271.101746,219.565704 
z"/>
<path fill="#000000" opacity="1.000000" stroke="none" 
	d="
M368.166687,230.164703 
	C367.853302,233.551529 369.167114,234.852081 372.180756,234.769165 
	C376.173767,234.659317 380.172577,234.780334 384.168549,234.750870 
	C386.504944,234.733643 388.573761,234.968948 388.727570,237.997040 
	C388.888062,241.156860 386.813751,241.383163 384.451447,241.373917 
	C377.624634,241.347168 370.795654,241.266678 363.971588,241.405563 
	C360.699036,241.472198 359.588135,240.091309 359.628479,236.942780 
	C359.741608,228.119186 359.740326,219.292374 359.634125,210.468643 
	C359.596985,207.384872 360.596954,205.804520 363.899658,205.854950 
	C370.391907,205.954086 376.886749,205.872635 383.380432,205.893585 
	C385.561401,205.900620 387.270447,206.368988 387.378662,209.163757 
	C387.497742,212.239792 385.663757,212.793182 383.270447,212.831390 
	C380.107605,212.881882 376.942627,212.830353 373.780975,212.913971 
	C371.186523,212.982559 368.046936,212.402451 368.141998,216.586990 
	C368.238373,220.827042 371.511017,219.877274 374.002930,220.005051 
	C376.827148,220.149857 379.663116,220.052109 382.489960,220.162338 
	C384.711304,220.248947 386.317444,221.000702 386.250305,223.718704 
	C386.182892,226.447266 384.516602,227.060577 382.303223,227.100098 
	C378.973877,227.159576 375.643219,227.143082 372.313873,227.202866 
	C370.463043,227.236099 368.505280,227.183640 368.166687,230.164703 
z"/>
<path fill="#000000" opacity="1.000000" stroke="none" 
	d="
M470.369873,230.991821 
	C470.225098,234.092712 471.813599,234.802505 474.148407,234.783844 
	C478.470917,234.749283 482.794067,234.794693 487.116760,234.770767 
	C489.552979,234.757294 491.345520,235.260223 491.288269,238.322601 
	C491.233093,241.273163 489.337341,241.356964 487.229034,241.355194 
	C480.412170,241.349472 473.593323,241.250793 466.779297,241.387894 
	C463.651520,241.450821 462.100067,240.300385 462.147797,237.113022 
	C462.281952,228.153809 462.442535,219.194427 462.478119,210.234650 
	C462.490967,207.004639 464.008423,205.833252 467.085602,205.875320 
	C473.402466,205.961716 479.721313,205.896118 486.039368,205.904053 
	C488.383606,205.906982 490.330688,206.253418 490.312988,209.373459 
	C490.295258,212.498520 488.209869,212.805054 485.967651,212.870499 
	C481.980499,212.986877 477.989380,212.967270 473.999847,213.000931 
	C471.612183,213.021072 470.331238,214.007355 470.340759,216.607697 
	C470.350647,219.307907 471.844269,220.029114 474.149109,220.043900 
	C477.806458,220.067337 481.464233,220.090424 485.120697,220.166687 
	C487.353516,220.213242 489.039429,220.955048 489.030273,223.612778 
	C489.021210,226.250900 487.387665,227.015945 485.121460,227.051285 
	C481.464386,227.108337 477.807037,227.164597 474.149628,227.181458 
	C471.844818,227.192093 470.211334,227.877228 470.369873,230.991821 
z"/>
<path fill="#000000" opacity="1.000000" stroke="none" 
	d="
M352.959717,206.048553 
	C355.498657,208.057724 353.289093,209.043625 352.327881,210.082748 
	C350.071594,212.522018 347.887238,215.135132 345.233002,217.074661 
	C340.906433,220.236176 341.717316,222.863998 344.954285,226.258331 
	C348.155396,229.615036 350.858673,233.448151 353.757080,237.090790 
	C354.562958,238.103653 355.631592,239.035599 355.212769,240.833145 
	C350.615326,242.089920 346.744568,241.745712 343.756714,237.116364 
	C341.350677,233.388565 338.293243,230.081161 335.592224,226.672287 
	C331.014069,227.851807 331.378204,231.171143 331.315735,234.337677 
	C331.276733,236.314880 331.590515,238.584137 330.739258,240.187988 
	C329.677765,242.187943 327.150269,241.412903 325.245697,241.158981 
	C323.261261,240.894409 323.365082,239.155258 323.376556,237.639206 
	C323.444366,228.673599 323.562012,219.708023 323.559052,210.742477 
	C323.558136,207.901382 324.035126,205.883469 327.557892,205.873032 
	C331.254913,205.862045 331.308136,208.161499 331.379730,210.858673 
	C331.448486,213.448013 330.711151,216.166214 332.508423,219.222229 
	C336.484131,216.598419 339.429932,213.039810 342.459290,209.730347 
	C345.337128,206.586395 348.485535,205.226593 352.959717,206.048553 
z"/>
<path fill="#000000" opacity="1.000000" stroke="none" 
	d="
M452.785522,207.913071 
	C455.042755,209.798325 456.792694,211.555588 456.111603,214.710052 
	C453.053131,215.839615 450.060120,217.283951 447.436127,213.528015 
	C446.437134,212.098068 444.523895,211.845749 442.884430,211.839340 
	C440.576050,211.830307 437.769287,211.818115 437.101654,214.618347 
	C436.367493,217.697693 439.138336,218.427628 441.332153,219.124863 
	C444.809143,220.229950 448.394531,221.004929 451.843353,222.184799 
	C455.769135,223.527878 457.502502,226.678116 457.746063,230.638168 
	C457.978363,234.415024 456.481140,237.414261 453.248901,239.515717 
	C447.309387,243.377380 435.377136,242.878983 430.579590,238.412323 
	C428.775238,236.732391 426.255402,234.304062 428.194000,232.139008 
	C430.196320,229.902802 433.421234,229.765518 435.956696,232.783249 
	C438.606110,235.936630 442.286926,236.223953 446.028442,235.202713 
	C447.815826,234.714844 449.515533,233.718857 449.520111,231.490692 
	C449.524200,229.503174 448.019989,228.537781 446.404022,228.028397 
	C443.241516,227.031540 439.988861,226.322372 436.819550,225.344910 
	C430.791718,223.485825 428.358948,220.322418 428.705811,215.021591 
	C429.024933,210.144592 432.464783,206.660675 438.340546,205.920303 
	C443.133179,205.316437 447.996063,205.197739 452.785522,207.913071 
z"/>
<path fill="#000000" opacity="1.000000" stroke="none" 
	d="
M424.046173,240.818451 
	C419.699585,241.931656 416.432343,241.529587 415.529785,236.571213 
	C414.904053,233.133667 412.254272,232.733139 409.412354,232.952194 
	C406.120270,233.205963 401.866486,231.715195 400.666962,236.516418 
	C399.299377,241.990448 395.860138,241.990280 391.333130,240.730774 
	C391.808319,236.044907 394.031616,232.077133 395.479279,227.889023 
	C397.653351,221.599365 400.112488,215.408569 402.311768,209.127182 
	C403.273743,206.379669 405.240753,205.773453 407.777374,205.866714 
	C410.091217,205.951782 412.490875,205.620728 413.544922,208.578995 
	C417.117340,218.605087 420.785431,228.597076 424.370941,238.618561 
	C424.578003,239.197327 424.376770,239.922165 424.046173,240.818451 
M406.860657,217.804993 
	C406.208740,220.285721 404.588989,222.558517 405.023712,225.429565 
	C407.283234,226.118378 409.288849,226.534973 411.546112,224.756760 
	C410.689575,222.224380 409.909454,219.717621 408.984436,217.265533 
	C408.504333,215.992859 407.757782,215.757614 406.860657,217.804993 
z"/>
<path fill="#000000" opacity="1.000000" stroke="none" 
	d="
M191.820251,169.828049 
	C192.601349,168.355774 193.484268,168.728592 193.676666,169.578934 
	C194.038559,171.178299 194.135818,172.864563 194.136139,174.514755 
	C194.145889,225.513947 194.138535,276.513153 194.089050,327.512299 
	C194.087128,329.501129 194.786774,331.786041 191.736069,334.420258 
	C191.736069,278.930054 191.736069,224.580566 191.820251,169.828049 
z"/>
<path fill="#000000" opacity="1.000000" stroke="none" 
	d="
M230.573029,269.891663 
	C229.634644,269.821075 229.009476,269.741302 227.388458,269.534393 
	C229.732666,271.803741 233.142807,272.480652 232.082642,275.908936 
	C231.566299,277.578674 230.306046,278.266815 228.672684,278.302948 
	C226.603928,278.348785 224.685867,278.097229 224.508331,275.508118 
	C225.897751,274.201355 226.698807,276.243591 227.861328,275.711945 
	C228.454895,273.641998 226.437943,273.410828 225.515289,272.433624 
	C224.427048,271.281067 223.603775,270.079559 224.368484,268.431793 
	C225.165070,266.715332 226.669907,266.006470 228.428207,266.054657 
	C229.995239,266.097626 231.388184,266.791809 231.902283,268.424622 
	C232.113098,269.094208 231.621185,269.667938 230.573029,269.891663 
z"/>
<path fill="#000000" opacity="1.000000" stroke="none" 
	d="
M250.686310,269.345032 
	C251.023987,265.700256 253.204178,265.936646 255.449814,266.343262 
	C258.512512,266.897797 260.712921,268.515869 261.038910,271.750031 
	C261.311096,274.450592 260.065369,276.667389 257.558502,277.763184 
	C255.578354,278.628723 252.994034,279.147797 251.513214,277.457550 
	C249.686844,275.372864 250.897415,272.381195 250.686310,269.345032 
M257.910767,270.549133 
	C257.003662,269.277557 255.635849,267.795074 254.341522,269.159210 
	C252.527832,271.070709 252.936630,273.594574 254.086761,276.035553 
	C257.289673,275.679962 258.865051,274.340973 257.910767,270.549133 
z"/>
<path fill="#000000" opacity="1.000000" stroke="none" 
	d="
M296.319489,272.923157 
	C296.151428,276.429901 294.857635,278.558289 291.471802,278.130463 
	C288.397034,277.741913 287.759583,275.290710 287.711731,272.636719 
	C287.660034,269.772461 287.566864,266.520447 291.218018,266.014771 
	C296.048004,265.345825 296.254395,269.025604 296.319489,272.923157 
M290.217682,270.947052 
	C290.314453,272.614410 289.659149,274.612335 292.283020,275.377686 
	C294.469238,273.686798 294.383789,271.431061 293.148560,269.469940 
	C292.145386,267.877258 290.966400,268.777252 290.217682,270.947052 
z"/>
<path fill="#000000" opacity="1.000000" stroke="none" 
	d="
M317.827332,277.877747 
	C317.086761,277.248169 316.678955,276.768463 316.261322,276.277222 
	C317.597687,274.401764 321.599701,277.306030 321.131470,273.673279 
	C320.810211,271.181122 317.978943,273.147003 316.356018,272.538300 
	C315.575897,270.402313 314.898987,268.091125 316.758698,266.504822 
	C318.279968,265.207184 320.413940,265.493835 322.258179,266.456085 
	C322.079163,269.088409 319.178802,267.396027 318.523041,269.314056 
	C321.385712,269.870911 324.367371,270.681244 324.000427,274.333435 
	C323.666443,277.658051 321.272980,278.629730 317.827332,277.877747 
z"/>
<path fill="#000000" opacity="1.000000" stroke="none" 
	d="
M216.686874,268.543549 
	C216.345337,270.020813 216.759689,271.249298 217.661514,272.299622 
	C217.327087,273.862579 214.630066,273.078003 214.800232,275.151428 
	C215.292770,276.996277 217.750549,275.585632 218.343521,277.273987 
	C213.221893,279.423645 211.918610,278.649506 211.756577,273.364502 
	C211.556274,266.830933 212.934677,264.821930 216.968414,265.975769 
	C219.345810,266.655792 219.382782,267.636414 216.686874,268.543549 
z"/>
<path fill="#000000" opacity="1.000000" stroke="none" 
	d="
M282.011414,269.043945 
	C282.293793,271.832001 280.224213,273.198334 279.435394,275.015961 
	C279.621643,276.299652 281.889404,275.866089 281.201691,277.866669 
	C279.091583,278.475159 276.926422,278.618439 274.555023,277.531799 
	C274.792847,273.912933 279.909302,273.153656 279.313171,269.547943 
	C277.884308,267.052643 276.237885,269.914917 274.825745,269.021698 
	C276.809723,264.655090 278.618225,264.580933 282.011414,269.043945 
z"/>
<path fill="#000000" opacity="1.000000" stroke="none" 
	d="
M307.615112,266.191101 
	C311.815948,269.495667 308.769989,272.193237 307.384430,274.854858 
	C307.379028,276.238159 309.724579,275.885132 308.995850,277.847717 
	C306.939331,278.534027 304.786194,278.554626 302.384247,277.525848 
	C302.728027,273.997498 307.064148,273.157104 307.315826,270.038086 
	C307.069977,267.468201 304.314606,269.091827 303.544739,267.511261 
	C304.296631,265.636536 305.753967,265.739288 307.615112,266.191101 
z"/>
<path fill="#000000" opacity="1.000000" stroke="none" 
	d="
M237.923737,267.656128 
	C239.932739,264.686188 242.383438,266.038544 245.723892,266.759583 
	C241.230499,269.780884 243.510849,274.459564 241.868073,278.403534 
	C237.857117,275.467896 241.856201,270.358185 237.923737,267.656128 
z"/>
</svg>